<mxfile host="app.diagrams.net" agent="Mozilla/5.0 (Windows NT 10.0; Win64; x64) AppleWebKit/537.36 (KHTML, like Gecko) Chrome/128.0.0.0 Safari/537.36" version="24.7.16">
  <diagram name="Page-1" id="ufPcFtBtT_tMSGd3bAlw">
    <mxGraphModel dx="1434" dy="908" grid="0" gridSize="10" guides="1" tooltips="1" connect="1" arrows="1" fold="1" page="0" pageScale="1" pageWidth="827" pageHeight="1169" math="0" shadow="0">
      <root>
        <mxCell id="0" />
        <mxCell id="1" parent="0" />
        <mxCell id="kRps_IP-fa0bhhn8yu1A-1" value="ARMED&lt;br&gt;-------&lt;div&gt;000&lt;/div&gt;" style="ellipse;whiteSpace=wrap;html=1;" vertex="1" parent="1">
          <mxGeometry x="21" y="63" width="120" height="80" as="geometry" />
        </mxCell>
        <mxCell id="kRps_IP-fa0bhhn8yu1A-2" value="UNLOCKED&lt;div&gt;-----------&lt;/div&gt;&lt;div&gt;110&lt;/div&gt;" style="ellipse;whiteSpace=wrap;html=1;" vertex="1" parent="1">
          <mxGeometry x="-113" y="191" width="120" height="80" as="geometry" />
        </mxCell>
        <mxCell id="kRps_IP-fa0bhhn8yu1A-3" value="OCCUPIED&lt;div&gt;----------&lt;/div&gt;&lt;div&gt;100&lt;/div&gt;" style="ellipse;whiteSpace=wrap;html=1;" vertex="1" parent="1">
          <mxGeometry x="11" y="322" width="120" height="80" as="geometry" />
        </mxCell>
        <mxCell id="kRps_IP-fa0bhhn8yu1A-4" value="LOCKED&lt;div&gt;----------&lt;/div&gt;&lt;div&gt;010&lt;/div&gt;" style="ellipse;whiteSpace=wrap;html=1;" vertex="1" parent="1">
          <mxGeometry x="170" y="191" width="120" height="80" as="geometry" />
        </mxCell>
        <mxCell id="kRps_IP-fa0bhhn8yu1A-5" value="ALARM&lt;div&gt;------&lt;/div&gt;&lt;div&gt;001&lt;/div&gt;" style="ellipse;whiteSpace=wrap;html=1;" vertex="1" parent="1">
          <mxGeometry x="221" y="-28" width="120" height="80" as="geometry" />
        </mxCell>
        <mxCell id="kRps_IP-fa0bhhn8yu1A-6" value="" style="curved=1;endArrow=classic;html=1;rounded=0;fontSize=12;startSize=8;endSize=8;entryX=0;entryY=0.5;entryDx=0;entryDy=0;" edge="1" parent="1" target="kRps_IP-fa0bhhn8yu1A-1">
          <mxGeometry width="50" height="50" relative="1" as="geometry">
            <mxPoint x="-72" y="191" as="sourcePoint" />
            <mxPoint x="-22" y="141" as="targetPoint" />
            <Array as="points">
              <mxPoint x="-72" y="141" />
            </Array>
          </mxGeometry>
        </mxCell>
        <mxCell id="kRps_IP-fa0bhhn8yu1A-7" value="" style="curved=1;endArrow=classic;html=1;rounded=0;fontSize=12;startSize=8;endSize=8;entryX=0.014;entryY=0.321;entryDx=0;entryDy=0;entryPerimeter=0;" edge="1" parent="1" target="kRps_IP-fa0bhhn8yu1A-5">
          <mxGeometry width="50" height="50" relative="1" as="geometry">
            <mxPoint x="121" y="76" as="sourcePoint" />
            <mxPoint x="214" y="-12" as="targetPoint" />
            <Array as="points">
              <mxPoint x="121" y="26" />
            </Array>
          </mxGeometry>
        </mxCell>
      </root>
    </mxGraphModel>
  </diagram>
</mxfile>
